<svg id="svg" version="1.1" xmlns="http://www.w3.org/2000/svg" xmlns:xlink="http://www.w3.org/1999/xlink" width="400" height="400" viewBox="0, 0, 400,400"><g id="svgg"><path id="path0" d="M195.019 87.309 C 182.866 89.439,174.176 99.772,174.421 111.800 C 174.453 113.395,174.480 153.310,174.480 200.500 C 174.480 247.690,174.453 287.605,174.421 289.200 C 174.204 299.871,180.916 309.239,191.257 312.699 C 207.251 318.051,223.929 305.927,223.585 289.200 C 223.503 285.203,223.508 115.376,223.590 111.900 C 223.948 96.789,209.904 84.701,195.019 87.309 M106.700 155.276 C 94.355 157.313,85.565 167.634,85.814 179.800 C 85.847 181.395,85.874 206.010,85.874 234.500 C 85.874 262.990,85.847 287.605,85.814 289.200 C 85.445 307.218,104.418 319.304,120.962 311.590 C 130.131 307.314,135.977 297.241,134.999 287.400 C 134.887 286.265,134.811 264.978,134.811 234.500 C 134.811 204.022,134.887 182.735,134.999 181.600 C 136.527 166.213,122.048 152.744,106.700 155.276 M284.950 215.911 C 272.474 217.853,263.175 229.658,264.401 242.000 C 264.505 243.056,264.589 253.181,264.589 264.800 C 264.589 276.419,264.505 286.544,264.401 287.600 C 263.321 298.476,270.384 309.132,281.032 312.692 C 293.992 317.024,307.611 310.136,312.188 296.934 L 312.800 295.168 312.800 264.800 L 312.800 234.432 312.187 232.666 C 308.121 220.943,296.913 214.049,284.950 215.911 " stroke="none" fill="#fccc04" fill-rule="evenodd"></path><path id="path1" d="" stroke="none" fill="#fcc404" fill-rule="evenodd"></path></g></svg>